#!OML:ASF E:\id_vita\Project 1\Capture day 1\Session 1\Female.ASF
:FULLY-SPECIFIED
:DEGREES
1195
root -11.7442 14.1149 -0.156661 -142.697 -81.5379 -158.667
lowerback 4.96728 1.90246 -2.85474
upperback -0.0755158 2.29818 -1.79419
thorax -2.90154 1.16542 -0.417908
lowerneck -5.21396 1.89805 1.2058
upperneck 2.38906 2.57985 -3.46115
head 1.70278 1.22144 -1.21527
rclavicle -5.1684e-015 -7.95139e-015
rhumerus 26.7202 24.7324 -69.8485
rradius 28.5277
rwrist 26.8955
rhand -43.2908 620.812
rfingers 7.12502
rthumb -16.1384 69.8396
lclavicle -5.1684e-015 -7.95139e-015
lhumerus 23.6055 -30.5742 71.4004
lradius 35.2517
lwrist -18.4683
lhand -61.6615 256.687
lfingers 7.12502
lthumb -33.7321 -850.156
rfemur -69.33 0.300033 20.2161
rtibia 87.4332
rfoot -13.0493 1.42968
rtoes -9.56106
lfemur -73.6997 0.982439 -29.5104
ltibia 72.0456
lfoot -30.3215 17.4615
ltoes -18.7717
1196
root -11.7968 14.1348 -0.152655 -144.724 -81.6211 -156.36
lowerback 4.71637 1.87866 -2.46169
upperback -0.112378 2.3024 -1.74751
thorax -2.78479 1.16309 -0.581081
lowerneck -5.25402 1.92658 1.60359
upperneck 2.35404 2.60358 -3.83615
head 1.71478 1.22861 -1.4037
rclavicle -4.82053e-014 -6.32135e-014
rhumerus 26.9317 24.9007 -69.8653
rradius 28.4414
rwrist 26.794
rhand -43.3798 620.832
rfingers 7.12502
rthumb -16.2241 69.827
lclavicle -4.82053e-014 -6.32135e-014
lhumerus 23.688 -30.4833 71.2651
lradius 35.0773
lwrist -18.3063
lhand -61.7539 255.449
lfingers 7.12502
lthumb -33.8199 -851.375
rfemur -71.2553 0.316638 20.8334
rtibia 88.3949
rfoot -13.0235 -0.591894
rtoes -9.60312
lfemur -73.5389 1.07614 -29.2237
ltibia 71.5252
lfoot -30.2371 17.7103
ltoes -19.2191
1197
root -11.8441 14.1506 -0.150648 -144.408 -81.5446 -156.873
lowerback 5.08848 1.84996 -2.56461
upperback -0.0227095 2.24274 -1.76208
thorax -2.90407 1.1336 -0.545517
lowerneck -5.23823 2.07183 1.07504
upperneck 2.23303 2.80873 -3.21189
head 1.65434 1.34174 -1.10573
rclavicle -7.7526e-015 -1.82882e-014
rhumerus 27.0841 24.7149 -70.0882
rradius 28.3535
rwrist 27.1783
rhand -43.1245 620.71
rfingers 7.12502
rthumb -15.9783 69.9286
lclavicle -7.7526e-015 -1.82882e-014
lhumerus 23.8313 -30.2371 71.2333
lradius 34.8728
lwrist -18.5489
lhand -61.6818 255.787
lfingers 7.12502
lthumb -33.7514 -851.052
rfemur -72.7333 0.208839 21.002
rtibia 89.317
rfoot -13.5205 0.0291622
rtoes -8.39214
lfemur -72.7833 1.12291 -29.3844
ltibia 70.9467
lfoot -30.1817 17.9743
ltoes -19.3237
1198
root -11.8723 14.142 -0.155506 -142.365 -81.4337 -158.958
lowerback 5.3097 1.82937 -2.98901
upperback 0.0232453 2.17858 -1.76709
thorax -2.99617 1.10678 -0.315625
lowerneck -5.21152 2.00595 0.947039
upperneck 2.01886 2.72233 -3.1807
head 1.57543 1.29998 -1.07667
rclavicle -1.94809e-014 1.40143e-014
rhumerus 27.3414 24.7981 -69.886
rradius 28.2175
rwrist 27.107
rhand -42.954 620.906
rfingers 7.12502
rthumb -15.8141 69.7201
lclavicle -1.94809e-014 1.40143e-014
lhumerus 23.9175 -29.8508 71.5434
lradius 34.6837
lwrist -18.995
lhand -61.5026 255.902
lfingers 7.12502
lthumb -33.5811 -850.974
rfemur -74.0372 0.255567 20.4243
rtibia 89.9763
rfoot -14.7049 -0.204783
rtoes -9.21988
lfemur -72.1972 1.05819 -29.7356
ltibia 70.4332
lfoot -30.2306 18.0292
ltoes -19.2056
1199
root -11.9322 14.1869 -0.157917 -141.361 -81.4623 -159.985
lowerback 5.49198 1.81472 -3.13792
upperback -0.0019424 2.1396 -1.77103
thorax -3.1293 1.09043 -0.24038
lowerneck -5.04507 1.94522 0.915612
upperneck 1.86326 2.63802 -3.14461
head 1.49283 1.26106 -1.06348
rclavicle -2.5842e-015 -1.71949e-014
rhumerus 27.4513 25.0196 -69.6678
rradius 28.0661
rwrist 26.9161
rhand -43.0603 621.013
rfingers 7.12502
rthumb -15.9164 69.6212
lclavicle -2.5842e-015 -1.71949e-014
lhumerus 23.711 -29.354 72.2407
lradius 34.4351
lwrist -19.7958
lhand -61.4454 255.511
lfingers 7.12502
lthumb -33.5267 -851.376
rfemur -75.5592 0.168111 20.4221
rtibia 90.4808
rfoot -15.0089 -0.612527
rtoes -7.55947
lfemur -71.7444 0.975466 -29.8647
ltibia 69.6641
lfoot -30.0381 17.9038
ltoes -19.2598
1200
root -11.9872 14.2146 -0.161158 -140.944 -81.5074 -160.393
lowerback 5.56466 1.86035 -3.15722
upperback -0.0128464 2.19489 -1.78253
thorax -3.18281 1.1186 -0.248952
lowerneck -5.00788 1.91199 0.895245
upperneck 1.95784 2.59421 -3.04343
head 1.51328 1.24068 -1.02949
rclavicle -7.196e-014 -4.51738e-014
rhumerus 27.3292 24.7557 -69.7788
rradius 27.9575
rwrist 27.0891
rhand -43.262 620.497
rfingers 7.12502
rthumb -16.1106 70.1525
lclavicle -7.196e-014 -4.51738e-014
lhumerus 23.5591 -29.0045 73.0403
lradius 34.0553
lwrist -20.6566
lhand -61.529 255.051
lfingers 7.12502
lthumb -33.6062 -851.819
rfemur -76.9313 0.155329 20.4259
rtibia 90.874
rfoot -15.4453 -1.2548
rtoes -8.56599
lfemur -71.2403 0.882324 -29.8537
ltibia 68.9707
lfoot -30.3074 17.685
ltoes -17.8277
1201
root -12.0334 14.2291 -0.153638 -141.085 -81.7106 -159.957
lowerback 5.4156 1.84492 -2.82003
upperback -0.0718509 2.20475 -1.75179
thorax -3.14836 1.11992 -0.402325
lowerneck -5.03402 1.8745 0.999347
upperneck 1.94378 2.54278 -3.23086
head 1.51789 1.21166 -1.10809
rclavicle 6.02318e-014 3.38431e-014
rhumerus 27.3229 24.4202 -69.8931
rradius 27.8422
rwrist 27.3211
rhand -43.3502 620.192
rfingers 7.12502
rthumb -16.1956 70.4642
lclavicle 6.02318e-014 3.38431e-014
lhumerus 23.6323 -28.8622 73.4552
lradius 33.7074
lwrist -20.9321
lhand -61.5671 253.95
lfingers 7.12502
lthumb -33.6424 -852.912
rfemur -78.6485 0.080205 20.5731
rtibia 91.2214
rfoot -15.8626 -2.0425
rtoes -11.0943
lfemur -71.0598 0.615805 -29.6326
ltibia 68.282
lfoot -30.3959 17.6197
ltoes -16.3424
1202
root -12.082 14.2459 -0.148904 -141.851 -82.0018 -158.919
lowerback 5.30296 1.74519 -2.42614
upperback -0.120989 2.10409 -1.70018
thorax -3.12162 1.06535 -0.558012
lowerneck -5.35763 1.80861 0.864557
upperneck 2.07217 2.46153 -3.08835
head 1.60948 1.16894 -1.04039
rclavicle 1.07344e-014 8.15017e-015
rhumerus 27.4872 24.4035 -69.9507
rradius 27.7162
rwrist 27.5769
rhand -43.3544 620.426
rfingers 7.12502
rthumb -16.1996 70.2304
lclavicle 1.07344e-014 8.15017e-015
lhumerus 23.6883 -28.4261 73.6678
lradius 33.4029
lwrist -21.4108
lhand -61.3907 253.245
lfingers 7.12502
lthumb -33.4748 -853.653
rfemur -80.264 0.0192983 20.8604
rtibia 91.4899
rfoot -16.3728 -2.91251
rtoes -12.126
lfemur -70.8615 0.381796 -29.2984
ltibia 67.6506
lfoot -30.3702 17.792
ltoes -16.2339
1203
root -12.1352 14.2685 -0.159111 -143.73 -82.0167 -157.131
lowerback 5.49498 1.74644 -2.34026
upperback -0.0552311 2.10659 -1.65083
thorax -3.16019 1.06512 -0.560374
lowerneck -5.54145 1.87941 0.829911
upperneck 2.14108 2.5544 -2.90913
head 1.66215 1.21723 -0.973638
rclavicle -3.01159e-014 -2.70844e-014
rhumerus 27.6779 24.3614 -70.1078
rradius 27.5799
rwrist 27.7287
rhand -43.0648 620.76
rfingers 7.12502
rthumb -15.9208 69.8744
lclavicle -3.01159e-014 -2.70844e-014
lhumerus 23.758 -27.9769 73.7386
lradius 33.1695
lwrist -21.9083
lhand -61.2339 253.229
lfingers 7.12502
lthumb -33.3257 -853.701
rfemur -81.3776 0.304993 21.1302
rtibia 91.6193
rfoot -16.5809 -3.66906
rtoes -11.9115
lfemur -70.2278 0.59818 -29.0567
ltibia 67.0004
lfoot -30.4297 17.853
ltoes -16.1845
1204
root -12.1814 14.2888 -0.165039 -143.407 -82.0235 -157.495
lowerback 5.64059 1.70271 -2.54138
upperback -0.0143292 2.03188 -1.58606
thorax -3.20853 1.03113 -0.379004
lowerneck -5.55494 1.9106 0.804927
upperneck 2.00566 2.59741 -2.99644
head 1.62296 1.23742 -0.995543
rclavicle -1.83876e-014 -5.15846e-014
rhumerus 27.9019 24.5199 -70.023
rradius 27.4681
rwrist 27.492
rhand -42.8582 620.9
rfingers 7.12502
rthumb -15.7218 69.7183
lclavicle -1.83876e-014 -5.15846e-014
lhumerus 23.8189 -27.6952 73.8338
lradius 32.927
lwrist -21.99
lhand -61.3523 252.536
lfingers 7.12502
lthumb -33.4382 -854.37
rfemur -82.7586 0.394526 21.1644
rtibia 91.8255
rfoot -16.8425 -4.384
rtoes -12.6705
lfemur -69.6809 0.589341 -29.0767
ltibia 66.3831
lfoot -30.3903 17.812
ltoes -15.5878
1205
root -12.233 14.3242 -0.167745 -142.37 -81.9153 -158.59
lowerback 5.83486 1.70142 -2.81055
upperback -0.0619857 2.00012 -1.63148
thorax -3.3744 1.02012 -0.280146
lowerneck -5.23485 1.91677 0.797037
upperneck 1.79817 2.59855 -2.90868
head 1.49765 1.2443 -0.968541
rclavicle 2.46493e-014 6.57977e-014
rhumerus 27.893 24.8146 -69.9544
rradius 27.3539
rwrist 27.2661
rhand -43.2774 620.501
rfingers 7.12502
rthumb -16.1255 70.1503
lclavicle 2.46493e-014 6.57977e-014
lhumerus 23.703 -27.6238 73.9308
lradius 32.7063
lwrist -22.1098
lhand -61.422 252.328
lfingers 7.12502
lthumb -33.5045 -854.564
rfemur -84.5113 0.476305 21.1664
rtibia 91.6805
rfoot -16.7564 -3.72424
rtoes -11.5412
lfemur -69.0591 0.63466 -29.2885
ltibia 65.6822
lfoot -30.3765 17.8314
ltoes -15.418
1206
root -12.2711 14.3193 -0.167537 -142.195 -81.9226 -158.739
lowerback 5.9219 1.6868 -2.79544
upperback -0.0901299 1.97665 -1.64629
thorax -3.45098 1.00877 -0.305203
lowerneck -5.07018 1.94658 0.413636
upperneck 1.72942 2.64575 -2.38438
head 1.43051 1.27773 -0.738384
rclavicle 6.95746e-015 1.71949e-014
rhumerus 27.9149 24.8189 -70.0482
rradius 27.1893
rwrist 27.4171
rhand -43.3333 620.205
rfingers 7.12502
rthumb -16.1794 70.4506
lclavicle 6.95746e-015 1.71949e-014
lhumerus 23.6936 -27.6542 73.922
lradius 32.5554
lwrist -22.1279
lhand -61.3308 253.333
lfingers 7.12502
lthumb -33.4178 -853.578
rfemur -85.4008 0.567001 20.9872
rtibia 91.7609
rfoot -17.6634 -4.34493
rtoes -13.1894
lfemur -68.736 0.621035 -29.3168
ltibia 65.1296
lfoot -30.364 17.8873
ltoes -15.7583
1207
root -12.3301 14.3562 -0.174765 -143.548 -81.9839 -157.355
lowerback 5.92577 1.73178 -2.76776
upperback -0.0368759 2.04458 -1.52914
thorax -3.40239 1.0426 -0.204948
lowerneck -5.19381 1.86902 0.711212
upperneck 1.63648 2.53719 -2.94984
head 1.43666 1.21357 -0.968985
rclavicle 1.54058e-014 3.47873e-014
rhumerus 28.0005 24.5228 -70.1883
rradius 26.9716
rwrist 27.8989
rhand -43.1583 620.181
rfingers 7.12502
rthumb -16.0108 70.4604
lclavicle 1.54058e-014 3.47873e-014
lhumerus 23.8724 -27.6442 74.025
lradius 32.3519
lwrist -22.1195
lhand -61.3767 253.204
lfingers 7.12502
lthumb -33.4615 -853.697
rfemur -86.6686 0.868338 21.218
rtibia 91.4501
rfoot -18.1073 -4.21051
rtoes -13.6132
lfemur -68.25 0.676361 -29.0339
ltibia 64.4907
lfoot -30.4671 18.0801
ltoes -16.3448
1208
root -12.3858 14.4008 -0.17873 -144.907 -81.9915 -155.933
lowerback 5.96695 1.7888 -2.68555
upperback 0.00167116 2.12862 -1.45285
thorax -3.38694 1.08338 -0.180305
lowerneck -5.23902 1.87777 0.613158
upperneck 1.52891 2.54928 -2.83624
head 1.40647 1.22174 -0.915886
rclavicle -4.23411e-014 -2.40032e-014
rhumerus 28.1507 24.4217 -70.1572
rradius 26.7435
rwrist 28.1692
rhand -43.4915 620.127
rfingers 7.12502
rthumb -16.3316 70.5404
lclavicle -4.23411e-014 -2.40032e-014
lhumerus 24.0505 -27.4505 74.1959
lradius 32.1644
lwrist -22.4188
lhand -61.3762 252.307
lfingers 7.12502
lthumb -33.4609 -854.595
rfemur -88.2894 1.19789 21.5315
rtibia 91.0333
rfoot -18.1926 -3.41611
rtoes -12.2239
lfemur -67.7132 0.754007 -28.8257
ltibia 63.7783
lfoot -30.4391 18.5779
ltoes -17.1722
1209
root -12.4146 14.3803 -0.182156 -143.836 -82.1066 -156.833
lowerback 5.9076 1.72555 -2.67681
upperback -0.0370802 2.04574 -1.48267
thorax -3.39079 1.0423 -0.207367
lowerneck -5.08325 1.89609 0.540362
upperneck 1.31864 2.5719 -2.7957
head 1.31043 1.23635 -0.891363
rclavicle 5.12864e-014 9.65597e-014
rhumerus 28.2497 24.3641 -70.2296
rradius 26.5836
rwrist 28.2351
rhand -43.5408 620.004
rfingers 7.12502
rthumb -16.3791 70.6676
lclavicle 5.12864e-014 9.65597e-014
lhumerus 24.1223 -27.3221 74.2167
lradius 32.0361
lwrist -22.6958
lhand -61.1839 252.041
lfingers 7.12502
lthumb -33.2782 -854.9
rfemur -89.2876 1.22068 21.2421
rtibia 90.9815
rfoot -18.993 -4.12786
rtoes -13.8402
lfemur -67.4845 0.56512 -28.9186
ltibia 63.2034
lfoot -30.2444 19.0238
ltoes -17.9336
